<svg id="handshake" xmlns="http://www.w3.org/2000/svg" width="75.972" height="63.48" viewBox="0 0 75.972 63.48">
  <g id="Group_846" data-name="Group 846" transform="translate(0 0)">
    <path id="Path_6257" data-name="Path 6257" d="M75.646,83,69.9,77.259a4.022,4.022,0,0,0-5.03-.532l-4.9-4.9,1.7-1.7A4.653,4.653,0,0,0,58.787,62.2a4.651,4.651,0,0,0-3.829-5.939A4.653,4.653,0,0,0,51,49.929a4.654,4.654,0,0,0-7.011-5.189l-.306-.581a3.645,3.645,0,0,0-3.721-1.908l-7.016.978a4.5,4.5,0,0,0-7.475,3.1,4.539,4.539,0,0,0-.957-.1,4.471,4.471,0,0,0-3.183,1.318h0a4.5,4.5,0,0,0-1.1,4.557,4.477,4.477,0,0,0-2.641,1.282h0a4.5,4.5,0,0,0-1.182,4.277,4.48,4.48,0,0,0-2.823,1.3h0a4.506,4.506,0,0,0,0,6.365l1.753,1.753a4.506,4.506,0,0,0,.618.515,7.878,7.878,0,0,0,1.485,3.548L11.1,77.493a4.027,4.027,0,0,0-5.03.531L.327,83.767A1.113,1.113,0,0,0,1.9,85.341L7.644,79.6a1.8,1.8,0,0,1,2.539,0l3.573,3.573A1.113,1.113,0,1,0,15.33,81.6L12.737,79l7.012-7.013a1.113,1.113,0,0,0,0-1.574,5.645,5.645,0,0,1-1.3-2.018l.07,0a4.5,4.5,0,0,0,4.483-4.1,4.529,4.529,0,0,0,1.144.147,4.5,4.5,0,0,0,4.455-3.879,4.5,4.5,0,0,0,5.223-6.78,4.473,4.473,0,0,0,2.134-1.2c.014-.014.026-.029.04-.043.205-.015.411-.039.616-.075l2.579-.45a1.112,1.112,0,0,0,.857-.338l.02-.02h0l1.082-1.082,3.293-3.293.033-.034.334-.334a2.428,2.428,0,1,1,3.434,3.433l-.918.918a1.113,1.113,0,0,0,1.574,1.574l0,0a2.427,2.427,0,0,1,3.429,3.436l-1.293,1.293-.007.007a1.113,1.113,0,0,0,1.575,1.573l0,0a2.43,2.43,0,0,1,3.428,0,2.431,2.431,0,0,1,0,3.433l-.957.957a1.113,1.113,0,0,0,1.573,1.575A2.428,2.428,0,1,1,60.1,68.552l-2.474,2.474-.013.012-.012.013L43.314,85.332a5.131,5.131,0,0,1-7.258,0l-.2-.2a1.113,1.113,0,0,0-1.574,0l-7.708,7.708-8.077-8.077a1.113,1.113,0,0,0-1.574,1.574l9.058,9.058a1.8,1.8,0,0,1,0,2.539l-5.744,5.743a1.113,1.113,0,0,0,1.574,1.574L27.552,99.5a4.028,4.028,0,0,0,.531-5.03L35.1,87.459a7.358,7.358,0,0,0,9.788-.553L58.4,73.4l4.841,4.841L49.4,92.073l-2.886-2.886a1.113,1.113,0,1,0-1.574,1.574l2.948,2.948a4.022,4.022,0,0,0,.531,5.031l5.743,5.743a1.113,1.113,0,1,0,1.574-1.574L50,97.166a1.8,1.8,0,0,1,0-2.539L65.79,78.833a1.8,1.8,0,0,1,2.539,0l5.743,5.743A1.113,1.113,0,1,0,75.646,83ZM28.356,44.987a2.258,2.258,0,0,1,1.476-.66c-.018.023-.038.044-.056.068a2.374,2.374,0,0,0-.441,1.8l.192,1.215a6.07,6.07,0,0,0,2.485,4.019c.107.076.215.147.325.216a2.256,2.256,0,0,1-1.166-.624l-1.549-1.548L28.35,48.2A2.279,2.279,0,0,1,28.356,44.987ZM20.133,65.511a2.278,2.278,0,0,1-3.218,0l-1.753-1.753a2.278,2.278,0,0,1,0-3.218h0a2.278,2.278,0,0,1,3.216,0l1.1,1.1.653.653a2.275,2.275,0,0,1,0,3.217Zm5.627-3.955a2.275,2.275,0,0,1-3.218,0l-1.489-1.489-1.1-1.1,0,0-.783-.783a2.278,2.278,0,0,1,0-3.218h0a2.278,2.278,0,0,1,3.216,0l3.377,3.377A2.278,2.278,0,0,1,25.76,61.555Zm5.961-3.621a2.275,2.275,0,0,1-3.218,0l-1.169-1.169h0l-3.376-3.376-.005,0L22.909,52.34a2.278,2.278,0,0,1,0-3.218h0a2.278,2.278,0,0,1,3.218,0l.644.644.011.012L28,51l3.718,3.718A2.278,2.278,0,0,1,31.721,57.934ZM41.513,47.08l-2.764,2.763-2.513.439a3.889,3.889,0,0,1-4.51-3.223l-.192-1.215a.167.167,0,0,1,.142-.191l8.6-1.2a1.376,1.376,0,0,1,.194-.014,1.416,1.416,0,0,1,1.25.754l.579,1.1Z" transform="translate(0 -42.094)" fill="#193b5e"/>
  </g>
</svg>
