<svg xmlns="http://www.w3.org/2000/svg" width="405.819" height="290.782" viewBox="0 0 405.819 290.782"><defs><style>.a{fill:#fff;}.b{fill:#e8e9ea;}.b,.c{stroke:#fff;stroke-miterlimit:10;}.c{fill:none;stroke-width:0.25px;}</style></defs><g transform="translate(-113.214 -224.151)"><path class="a" d="M316.873,225.1l-98.286,66.8v16.593l98.286-54.414Z"/><path class="b" d="M316.873,254.076l96.8,54.313v-16.86l-96.8-66.429Z"/><path class="a" d="M316.873,266.8l-62.238,33.078v12.989l62.238-22.907Z"/><path class="b" d="M316.873,289.859l60.752,22.9V299.506L316.873,266.8Z"/><path class="b" d="M316.873,323.265l60.752,6.9V316.906l-60.749-19.441Z"/><path class="a" d="M316.876,297.555l-62.241,19.718v12.987l62.241-6.97Z"/><path class="b" d="M316.873,354.868l60.752-7.3V334.313L316.873,329.2Z"/><path class="b" d="M316.978,387.14l60.647-21.345V352.541l-60.643,9.131Z"/><path class="b" d="M316.978,419.6l60.647-35.85V370.49l-60.643,23.438Z"/><path class="b" d="M402.365,335.232h-3.257V297.2l3.257,1.8Z"/><path class="a" d="M316.873,354.891l0-25.689-33.41,2.941,10.578,20.1Z"/><path class="a" d="M254.635,334.682v12.986l14.9,1.729,10.113-16.918Z"/><path class="a" d="M264.53,357.77l1.914-3.2-11.809-1.66v12.987l15.772,5.375a94.874,94.874,0,0,0,1.959-12.718C271.976,358.552,264.53,357.77,264.53,357.77Z"/><path class="a" d="M290.788,361.374s1.368,7.964,4.014,18.209l22.176,7.557,0-25.468-19.41-2.729,2.228,4.233Z"/><path class="a" d="M308.443,414.7l8.535,4.895,0-25.735-20.322-7.5C299.561,396.341,303.508,407.207,308.443,414.7Z"/><path class="a" d="M269.011,376.164l-14.376-5.3v12.99l4.124,2.364C261.32,386.584,265.743,385.59,269.011,376.164Z"/><path class="a" d="M256.766,385.565l-.075-.044S256.718,385.538,256.766,385.565Z"/><rect class="b" width="8.683" height="8.683" transform="translate(394.597 335.23) rotate(-44.991)"/><path class="a" d="M114.716,442.079h12.546v5.79h-5.021v5.487h4.7v5.5h-4.7v6.363h5.521v5.79H114.716Z"/><path class="a" d="M146.723,442.079v28.934h-6.594l-3.914-13.154v13.154h-6.291V442.079h6.291l4.218,13.028V442.079Z"/><path class="a" d="M167.007,452.73h-7.523V450.1a12.95,12.95,0,0,0-.215-3.109,1.124,1.124,0,0,0-1.966-.09,8.731,8.731,0,0,0-.25,2.752v13.887a8.264,8.264,0,0,0,.25,2.564.974.974,0,0,0,1,.617,1.1,1.1,0,0,0,1.117-.7,8.141,8.141,0,0,0,.295-2.716v-3.431H158.2v-4.4h8.81v15.531H162.28l-.7-2.073a5.264,5.264,0,0,1-1.94,2.01,5.468,5.468,0,0,1-2.763.67,7.179,7.179,0,0,1-3.55-.92,6.782,6.782,0,0,1-2.513-2.279,7.221,7.221,0,0,1-1.073-2.85,34.258,34.258,0,0,1-.214-4.477v-8.6a28.79,28.79,0,0,1,.446-6.022,6.18,6.18,0,0,1,2.564-3.441,9,9,0,0,1,5.478-1.563,10.208,10.208,0,0,1,5.486,1.358,6.406,6.406,0,0,1,2.842,3.226,17.074,17.074,0,0,1,.661,5.423Z"/><path class="a" d="M177.445,442.079v23.144h4.574v5.79h-12.1V442.079Z"/><path class="a" d="M191.367,442.079v28.934h-7.525V442.079Z"/><path class="a" d="M210.328,450.836H203.34v-2.145a4.219,4.219,0,0,0-.268-1.912.989.989,0,0,0-.894-.411,1.138,1.138,0,0,0-1.027.555,3.208,3.208,0,0,0-.349,1.68,4.761,4.761,0,0,0,.392,2.183,5.691,5.691,0,0,0,2.126,1.769q5.023,2.982,6.328,4.893t1.305,6.166a10.821,10.821,0,0,1-.724,4.557,5.672,5.672,0,0,1-2.8,2.458,11.064,11.064,0,0,1-4.825.991,10.784,10.784,0,0,1-5.155-1.143,5.609,5.609,0,0,1-2.8-2.913,14.909,14.909,0,0,1-.661-5.022v-1.895h6.987v3.521a4.645,4.645,0,0,0,.295,2.091,1.139,1.139,0,0,0,1.045.465,1.225,1.225,0,0,0,1.117-.59,3.369,3.369,0,0,0,.366-1.751q0-2.556-.7-3.342a22.329,22.329,0,0,0-3.521-2.628,34.371,34.371,0,0,1-3.717-2.7,6.293,6.293,0,0,1-1.51-2.323,10.207,10.207,0,0,1-.6-3.789,10.5,10.5,0,0,1,.849-4.861,5.7,5.7,0,0,1,2.743-2.4,10.94,10.94,0,0,1,4.575-.867,11.91,11.91,0,0,1,5,.947,5.239,5.239,0,0,1,2.735,2.386,12.647,12.647,0,0,1,.67,4.887Z"/><path class="a" d="M230.611,442.079v28.934h-7.525V458.86h-2.251v12.153h-7.524V442.079h7.524v10.348h2.251V442.079Z"/><path class="a" d="M255.238,442.079v5.79H250.77v23.144h-7.524V447.869H238.8v-5.79Z"/><path class="a" d="M256.953,442.079h5.326a40.835,40.835,0,0,1,7.211.411,4.969,4.969,0,0,1,3.073,2.1q1.188,1.689,1.188,5.388,0,3.378-.839,4.54t-3.306,1.393a5.657,5.657,0,0,1,3,1.484,4.431,4.431,0,0,1,.956,1.707,27,27,0,0,1,.187,4.28v7.631h-6.987V461.4a6.642,6.642,0,0,0-.366-2.877q-.366-.555-1.921-.554v13.046h-7.524Zm7.524,4.95v6.434a3.309,3.309,0,0,0,1.777-.348q.51-.348.51-2.261v-1.59a2.414,2.414,0,0,0-.491-1.8A2.8,2.8,0,0,0,264.477,447.029Z"/><path class="a" d="M289.67,442.079l4.3,28.934h-7.689l-.4-5.2h-2.691l-.452,5.2h-7.779l3.837-28.934Zm-3.987,18.6q-.572-4.917-1.146-12.153-1.15,8.31-1.444,12.153Z"/><path class="a" d="M302.775,442.079v28.934H295.25V442.079Z"/><path class="a" d="M322.594,442.079v28.934H316l-3.914-13.154v13.154h-6.292V442.079h6.292l4.217,13.028V442.079Z"/><path class="a" d="M333.139,442.079v28.934h-7.526V442.079Z"/><path class="a" d="M352.957,442.079v28.934h-6.594l-3.914-13.154v13.154h-6.291V442.079h6.291l4.217,13.028V442.079Z"/><path class="a" d="M373.24,452.73h-7.523V450.1a13.063,13.063,0,0,0-.215-3.109,1.125,1.125,0,0,0-1.967-.09,8.762,8.762,0,0,0-.25,2.752v13.887a8.3,8.3,0,0,0,.25,2.564.976.976,0,0,0,1,.617,1.105,1.105,0,0,0,1.117-.7,8.167,8.167,0,0,0,.3-2.716v-3.431H364.43v-4.4h8.81v15.531h-4.728l-.7-2.073a5.266,5.266,0,0,1-1.941,2.01,5.464,5.464,0,0,1-2.762.67,7.18,7.18,0,0,1-3.551-.92,6.782,6.782,0,0,1-2.513-2.279,7.2,7.2,0,0,1-1.072-2.85,34.225,34.225,0,0,1-.215-4.477v-8.6a28.7,28.7,0,0,1,.447-6.022,6.175,6.175,0,0,1,2.564-3.441,8.99,8.99,0,0,1,5.477-1.563,10.206,10.206,0,0,1,5.486,1.358,6.4,6.4,0,0,1,2.842,3.226,17.069,17.069,0,0,1,.662,5.423Z"/><path class="a" d="M399.707,442.079v19.337a33.51,33.51,0,0,1-.215,4.619,6.258,6.258,0,0,1-1.269,2.735,6.6,6.6,0,0,1-2.778,2.127,10.474,10.474,0,0,1-4.066.723,11.441,11.441,0,0,1-4.574-.857,6.882,6.882,0,0,1-2.967-2.235,6.173,6.173,0,0,1-1.162-2.9q-.178-1.53-.18-6.425V442.079h7.525v21.695a8.549,8.549,0,0,0,.206,2.422.8.8,0,0,0,.83.528.872.872,0,0,0,.921-.581,10.811,10.811,0,0,0,.206-2.744v-21.32Z"/><path class="a" d="M419.418,442.079v28.934h-6.594l-3.914-13.154v13.154h-6.291V442.079h6.291l4.219,13.028V442.079Z"/><path class="a" d="M429.963,442.079v28.934h-7.524V442.079Z"/><path class="a" d="M450.873,442.079l-3.83,28.934H435.615l-4.347-28.934H439.2q1.383,11.955,1.975,20.231.582-8.364,1.236-14.85l.523-5.381Z"/><path class="a" d="M452.141,442.079h12.546v5.79h-5.021v5.487h4.7v5.5h-4.7v6.363h5.521v5.79H452.141Z"/><path class="a" d="M467.35,442.079h5.326a40.843,40.843,0,0,1,7.211.411,4.967,4.967,0,0,1,3.072,2.1q1.189,1.689,1.189,5.388,0,3.378-.839,4.54T480,455.911a5.648,5.648,0,0,1,3,1.484,4.435,4.435,0,0,1,.957,1.707,27,27,0,0,1,.187,4.28v7.631H477.16V461.4a6.648,6.648,0,0,0-.365-2.877q-.366-.555-1.922-.554v13.046H467.35Zm7.523,4.95v6.434a3.306,3.306,0,0,0,1.777-.348q.51-.348.51-2.261v-1.59a2.419,2.419,0,0,0-.49-1.8A2.8,2.8,0,0,0,474.873,447.029Z"/><path class="a" d="M503,450.836h-6.986v-2.145a4.181,4.181,0,0,0-.27-1.912.987.987,0,0,0-.893-.411,1.139,1.139,0,0,0-1.027.555,3.218,3.218,0,0,0-.349,1.68,4.761,4.761,0,0,0,.392,2.183,5.677,5.677,0,0,0,2.125,1.769q5.025,2.982,6.328,4.893t1.305,6.166a10.807,10.807,0,0,1-.723,4.557,5.677,5.677,0,0,1-2.8,2.458,11.065,11.065,0,0,1-4.826.991,10.783,10.783,0,0,1-5.154-1.143,5.605,5.605,0,0,1-2.8-2.913,14.932,14.932,0,0,1-.662-5.022v-1.895h6.988v3.521a4.63,4.63,0,0,0,.295,2.091,1.138,1.138,0,0,0,1.045.465,1.226,1.226,0,0,0,1.117-.59,3.37,3.37,0,0,0,.365-1.751q0-2.556-.7-3.342a22.226,22.226,0,0,0-3.521-2.628,34.368,34.368,0,0,1-3.717-2.7,6.305,6.305,0,0,1-1.51-2.323,10.205,10.205,0,0,1-.6-3.789,10.509,10.509,0,0,1,.85-4.861,5.711,5.711,0,0,1,2.742-2.4,10.948,10.948,0,0,1,4.576-.867,11.907,11.907,0,0,1,4.995.947,5.229,5.229,0,0,1,2.734,2.386,12.628,12.628,0,0,1,.67,4.887Z"/><path class="a" d="M505.986,442.079h12.547v5.79h-5.021v5.487h4.7v5.5h-4.7v6.363h5.521v5.79H505.986Z"/><line class="c" x2="405.817" transform="translate(113.214 485.382)"/><path class="b" d="M192.165,505.62a4.521,4.521,0,0,1,1.4,7.33,4.552,4.552,0,0,1-2.681,1.317H186.4V500.483h4.113a2.827,2.827,0,0,1,2,4.826A2.46,2.46,0,0,1,192.165,505.62Zm-4.98-4.367v4.017h3.509a2.041,2.041,0,0,0,1.267-.507,2.06,2.06,0,0,0-1.453-3.51Zm3.188,12.233a3.7,3.7,0,0,0,3.694-3.714,3.6,3.6,0,0,0-1.082-2.631,3.546,3.546,0,0,0-2.612-1.092h-3.188v7.437Z"/><path class="b" d="M206.689,500.483h.779v9.9a4.546,4.546,0,0,1-1.315,2.68,4.5,4.5,0,0,1-7.682-3.177v-9.407h.78v9.407a3.719,3.719,0,0,0,7.438,0Z"/><path class="b" d="M215.381,506.634a5.809,5.809,0,0,1-2.325-1.34,2.92,2.92,0,0,1,4.139-4.119,2.529,2.529,0,0,1,.652,1.023l-.7.274a2.157,2.157,0,0,0-.507-.771,2.143,2.143,0,0,0-3.656,1.522,2.09,2.09,0,0,0,.624,1.52,5.74,5.74,0,0,0,1.618,1.053,6.841,6.841,0,0,1,2.788,1.667,4.077,4.077,0,1,1-5.77,5.761A3.845,3.845,0,0,1,211.092,511l.732-.263a3.124,3.124,0,0,0,.955,1.95,3.319,3.319,0,1,0,4.7-4.689A6.3,6.3,0,0,0,215.381,506.634Z"/><path class="b" d="M223.7,500.483v13.784h-.78V500.483Z"/><path class="b" d="M228.936,500.483l9.163,12.838V500.483h.78v13.784h-1.2l-8.948-12.537v12.537h-.78V500.483Z"/><path class="b" d="M249.921,500.483v.78H243.81v5.722h6.111v.78H243.81v5.721h6.111v.781H243.03V500.483Z"/><path class="b" d="M257.835,506.634a5.816,5.816,0,0,1-2.325-1.34,2.92,2.92,0,0,1,4.139-4.119,2.529,2.529,0,0,1,.652,1.023l-.7.274a2.143,2.143,0,0,0-.507-.771,2.143,2.143,0,0,0-3.656,1.522,2.09,2.09,0,0,0,.624,1.52,5.74,5.74,0,0,0,1.618,1.053,6.841,6.841,0,0,1,2.788,1.667,4.077,4.077,0,1,1-5.77,5.761A3.845,3.845,0,0,1,253.546,511l.732-.263a3.124,3.124,0,0,0,.955,1.95,3.319,3.319,0,1,0,4.7-4.689A6.289,6.289,0,0,0,257.835,506.634Z"/><path class="b" d="M269.014,506.634a5.809,5.809,0,0,1-2.325-1.34,2.92,2.92,0,0,1,4.139-4.119,2.529,2.529,0,0,1,.652,1.023l-.7.274a2.17,2.17,0,0,0-.507-.771,2.143,2.143,0,0,0-3.656,1.522,2.09,2.09,0,0,0,.624,1.52,5.711,5.711,0,0,0,1.618,1.053,6.847,6.847,0,0,1,2.788,1.667,4.077,4.077,0,1,1-5.771,5.761,3.849,3.849,0,0,1-1.15-2.223l.731-.263a3.131,3.131,0,0,0,.956,1.95,3.319,3.319,0,1,0,4.7-4.689A6.3,6.3,0,0,0,269.014,506.634Z"/><path class="b" d="M294.248,512.073l.594.527a7.063,7.063,0,1,1,0-10.44l-.594.526a6.264,6.264,0,1,0,0,9.387Z"/><path class="b" d="M310.119,502.359a7.071,7.071,0,1,1-5-2.071A6.81,6.81,0,0,1,310.119,502.359Zm-5-1.281a6.291,6.291,0,1,0,4.444,1.842A6.043,6.043,0,0,0,305.115,501.078Z"/><path class="b" d="M327.941,500.483v13.784h-.779V501.321l-5.332,6.989-5.342-6.989v12.946h-.779V500.483h1.131l4.99,6.532,4.982-6.532Z"/><path class="b" d="M343.994,500.483v13.784h-.779V501.321l-5.332,6.989-5.342-6.989v12.946h-.779V500.483h1.131l4.99,6.532,4.982-6.532Z"/><path class="b" d="M356.207,500.483h.779v9.9a4.545,4.545,0,0,1-1.314,2.68,4.5,4.5,0,0,1-7.682-3.177v-9.407h.779v9.407a3.719,3.719,0,0,0,7.438,0Z"/><path class="b" d="M362.121,500.483l9.164,12.838V500.483h.779v13.784h-1.2l-8.947-12.537v12.537h-.781V500.483Z"/><path class="b" d="M377.092,500.483v13.784h-.78V500.483Z"/><path class="b" d="M392.211,512.073l.594.527a7.063,7.063,0,1,1,0-10.44l-.594.526a6.264,6.264,0,1,0,0,9.387Z"/><path class="b" d="M401.254,500.483l5,13.784h-.819l-2.2-6.064h-4.767l-2.242,6.064h-.829l5.061-13.784Zm1.7,6.951-2.1-5.781-2.105,5.781Z"/><path class="b" d="M412.141,501.263v13h-.77v-13h-3.49v-.78h7.75v.78Z"/><path class="b" d="M419.906,500.483v13.784h-.779V500.483Z"/><path class="b" d="M435.769,502.359a7.071,7.071,0,1,1-5-2.071A6.811,6.811,0,0,1,435.769,502.359Zm-5-1.281a6.292,6.292,0,1,0,4.443,1.842A6.042,6.042,0,0,0,430.766,501.078Z"/><path class="b" d="M442.488,500.483l9.164,12.838V500.483h.78v13.784h-1.2l-8.947-12.537v12.537H441.5V500.483Z"/></g></svg>