<svg id="promise" xmlns="http://www.w3.org/2000/svg" width="62.656" height="68.63" viewBox="0 0 62.656 68.63">
  <g id="Group_892" data-name="Group 892" transform="translate(0)">
    <g id="Group_891" data-name="Group 891">
      <path id="Path_6280" data-name="Path 6280" d="M55.461,42.615l-4.581-8.167a6.059,6.059,0,0,0-5.233-3.022h-.3V28.361A2.208,2.208,0,0,0,46.926,26.2V1.005a1.005,1.005,0,0,0-2.011,0V26.2a.281.281,0,0,1-.083.219H27.159a.282.282,0,0,1-.083-.219V1.005a1.005,1.005,0,1,0-2.011,0V26.2a2.205,2.205,0,0,0,1.616,2.171l-.047,2.9h-.163a4.19,4.19,0,0,0-4.185,4.185v9.928a1.005,1.005,0,0,0,2.011,0V35.46a2.177,2.177,0,0,1,2.174-2.174h1.153a1,1,0,0,0,1.005-.989l.062-3.868H43.334v4a1,1,0,0,0,1.005,1.005h1.308a4.038,4.038,0,0,1,3.485,2.005l4.581,8.167a2.12,2.12,0,0,1-3.668,2.128l-2.9-5.258-.009-.017a2.042,2.042,0,0,0-1.763-1.018c-.059,0-.118,0-.176.009H39.616a2.194,2.194,0,0,1-2.192-2.192V33.979a1.005,1.005,0,1,0-2.011,0v3.283a4.207,4.207,0,0,0,4.2,4.2h3.718c0,.006,0,.011,0,.016V57.99a1.736,1.736,0,0,1-.52,1.23,1.565,1.565,0,0,1-1.137.465,1.633,1.633,0,0,1-1.594-1.625V44.354a1.005,1.005,0,1,0-2.011,0v16.37a1.633,1.633,0,0,1-1.594,1.625,1.683,1.683,0,0,1-1.657-1.694v-16.3a1.005,1.005,0,1,0-2.011,0V56.963a1.633,1.633,0,0,1-1.594,1.625,1.571,1.571,0,0,1-1.137-.465,1.736,1.736,0,0,1-.52-1.229V44.354a1.005,1.005,0,1,0-2.011,0v8.065a1.633,1.633,0,0,1-1.594,1.625h-.029a1.578,1.578,0,0,1-1.108-.465,1.735,1.735,0,0,1-.52-1.23V49.41a1.005,1.005,0,1,0-2.011,0v2.94a3.758,3.758,0,0,0,1.123,2.665,3.572,3.572,0,0,0,4.139.653v1.226a3.758,3.758,0,0,0,1.123,2.664,3.572,3.572,0,0,0,4.139.653,3.984,3.984,0,0,0,1.123,3.107,3.616,3.616,0,0,0,6.106-2.033,3.573,3.573,0,0,0,4.183-.63,3.758,3.758,0,0,0,1.123-2.665V41.481a.023.023,0,0,1,.017-.021l.016,0a.021.021,0,0,1,.013.008l2.9,5.253.01.017a4.131,4.131,0,0,0,7.161-4.12Z" transform="translate(-22.286 0)" fill="#193b5e"/>
    </g>
  </g>
  <g id="Group_894" data-name="Group 894" transform="translate(6.122 21.01)">
    <g id="Group_893" data-name="Group 893">
      <path id="Path_6281" data-name="Path 6281" d="M71.992,156.739H68.962a1.005,1.005,0,0,0,0,2.011h3.029a1.005,1.005,0,1,0,0-2.011Z" transform="translate(-67.957 -156.739)" fill="#193b5e"/>
    </g>
  </g>
  <g id="Group_896" data-name="Group 896" transform="translate(28.932 4.271)">
    <g id="Group_895" data-name="Group 895">
      <path id="Path_6282" data-name="Path 6282" d="M268.145,40.166a3.587,3.587,0,0,0-1.556.387V39.327a3.758,3.758,0,0,0-1.123-2.665,3.572,3.572,0,0,0-4.139-.653v-.443A3.758,3.758,0,0,0,260.2,32.9a3.578,3.578,0,0,0-2.583-1.04,3.658,3.658,0,0,0-3.523,3.074,3.573,3.573,0,0,0-4.183.63,3.758,3.758,0,0,0-1.123,2.665v2.941a1.005,1.005,0,0,0,2.011,0V38.231a1.736,1.736,0,0,1,.52-1.23,1.56,1.56,0,0,1,1.137-.465,1.633,1.633,0,0,1,1.594,1.625V51.868a1.005,1.005,0,1,0,2.011,0V35.5a1.633,1.633,0,0,1,1.594-1.625,1.568,1.568,0,0,1,1.137.465,1.735,1.735,0,0,1,.52,1.229v16.3a1.005,1.005,0,1,0,2.011,0V39.258a1.633,1.633,0,0,1,1.594-1.625,1.683,1.683,0,0,1,1.657,1.694v12.54a1.005,1.005,0,1,0,2.011,0V43.8a1.633,1.633,0,0,1,1.594-1.625,1.682,1.682,0,0,1,1.657,1.694v16.89a2.177,2.177,0,0,1-2.174,2.174h-1.152a1,1,0,0,0-1.005.989l-.062,3.868H250.8v-4a1,1,0,0,0-1.005-1.005h-1.308A4.038,4.038,0,0,1,245,60.779l-4.581-8.167a2.12,2.12,0,0,1,3.668-2.128l2.9,5.258.009.017a2.042,2.042,0,0,0,1.763,1.018h5.649a2.194,2.194,0,0,1,2.192,2.192v3.283a1.005,1.005,0,1,0,2.011,0V58.969a4.207,4.207,0,0,0-4.2-4.2H250.8c0-.009,0-.017,0-.025V45.193a1.005,1.005,0,1,0-2.011,0v9.548a.026.026,0,0,1-.046.015l-2.9-5.253-.01-.017a4.131,4.131,0,0,0-7.161,4.12l4.581,8.167a6.059,6.059,0,0,0,5.233,3.021h.3v3.066a2.208,2.208,0,0,0-1.582,2.162V95.216a1.005,1.005,0,1,0,2.011,0V70.023a.282.282,0,0,1,.083-.219h17.673a.282.282,0,0,1,.083.219V95.216a1.005,1.005,0,0,0,2.011,0V70.023a2.2,2.2,0,0,0-1.616-2.172l.047-2.9h.163a4.19,4.19,0,0,0,4.185-4.185V43.871A3.693,3.693,0,0,0,268.145,40.166Z" transform="translate(-238.127 -31.862)" fill="#193b5e"/>
    </g>
  </g>
  <g id="Group_898" data-name="Group 898" transform="translate(51.494 45.61)">
    <g id="Group_897" data-name="Group 897">
      <path id="Path_6283" data-name="Path 6283" d="M410.477,340.261h-3.029a1.005,1.005,0,0,0,0,2.011h3.029a1.005,1.005,0,0,0,0-2.011Z" transform="translate(-406.442 -340.261)" fill="#193b5e"/>
    </g>
  </g>
</svg>
