<svg id="puzzle" xmlns="http://www.w3.org/2000/svg" width="64.902" height="68.12" viewBox="0 0 64.902 68.12">
  <g id="Group_900" data-name="Group 900" transform="translate(14.253 0)">
    <g id="Group_899" data-name="Group 899">
      <path id="Path_6284" data-name="Path 6284" d="M169.584,28.354l-2.8-6.01a1.356,1.356,0,0,0-2.234-.338,3.746,3.746,0,0,1-1.312.933,3.826,3.826,0,0,1-4.9-1.82,3.788,3.788,0,0,1,3.259-5.447,1.356,1.356,0,0,0,1.171-1.928l-2.8-6.011A2.964,2.964,0,0,0,156.029,6.3l-6.095,2.842-.388-.831a5.743,5.743,0,0,0,.039-4.968,5.805,5.805,0,0,0-3.44-3.05,5.778,5.778,0,0,0-7.5,4.554,1,1,0,0,0,1.968.331,3.821,3.821,0,0,1,1.908-2.707,3.786,3.786,0,0,1,5.191,5.054,1.711,1.711,0,0,0-.029,1.508l.564,1.208a1.718,1.718,0,0,0,2.28.83l6.349-2.96a.968.968,0,0,1,1.287.469l2.431,5.212a5.785,5.785,0,0,0-4.044,8.2,5.851,5.851,0,0,0,5.246,3.236,5.643,5.643,0,0,0,2.23-.456,5.775,5.775,0,0,0,1.322-.787l2.431,5.212a.968.968,0,0,1-.468,1.287L163.1,32.446a5.872,5.872,0,0,0-.282-.73,5.785,5.785,0,0,0-10.74,4.243c.057.173.124.34.2.505.005.013.01.026.015.039s.016.036.025.054a5.756,5.756,0,0,0,.4.734L149.692,38.7a.967.967,0,0,1-1.285-.468l-.886-1.9a6.523,6.523,0,0,0,3.887-5.959v-3.4a1.515,1.515,0,0,0-1.1-1.456c-.059-.176-.124-.35-.2-.52a5.788,5.788,0,0,0-8.884-2.176l-2.431-5.213a.967.967,0,0,1,.469-1.285l5.157-2.405a1.715,1.715,0,0,0,.83-2.28l-.564-1.209a1.708,1.708,0,0,0-1.174-.944,3.793,3.793,0,0,1-2.115-1.317,1,1,0,1,0-1.556,1.249,5.793,5.793,0,0,0,3.1,1.982l.387.829-4.9,2.287a2.962,2.962,0,0,0-1.434,3.937l2.8,6.014a1.356,1.356,0,0,0,2.231.337,3.788,3.788,0,0,1,6.087.657H132.873a13.536,13.536,0,0,0-1.362.069,1,1,0,0,0,.2,1.986,11.539,11.539,0,0,1,1.16-.059h16.54V30.37a4.524,4.524,0,0,1-4.519,4.519h-7.642a1,1,0,0,0-1,1v3.069a9.9,9.9,0,0,1-9.89,9.89,1,1,0,1,0,0,2,11.9,11.9,0,0,0,11.886-11.886V36.885h4.524a4.847,4.847,0,0,0,.812,6.926,4.844,4.844,0,0,0,0,7.708,4.842,4.842,0,0,0-.976,6.709H129.62a1,1,0,0,0-.641.233l-9.409,7.9a1,1,0,1,0,1.283,1.529l9.13-7.662h22.854a4.849,4.849,0,0,0,2.943-8.705,4.845,4.845,0,0,0,0-7.708,4.859,4.859,0,0,0,.987-6.71h5.815a4.849,4.849,0,0,0,4.836-4.467l.732-.341a2.964,2.964,0,0,0,1.434-3.939Zm-23.851,8.862.866,1.857a2.958,2.958,0,0,0,3.937,1.432l3.73-1.738a1.362,1.362,0,0,0,.687-.734,2.861,2.861,0,0,1-2.117,4.78h-6.309a2.854,2.854,0,0,1-.8-5.6Zm.8,7.592h6.308a2.856,2.856,0,0,1,0,5.712h-6.309a2.856,2.856,0,0,1,0-5.712Zm6.309,13.42h-6.319a2.856,2.856,0,0,1,.01-5.711h6.308a2.856,2.856,0,1,1,0,5.712Zm10.7-23.285a2.837,2.837,0,0,1-.951.162h-8.675a3.788,3.788,0,1,1,7.41-1.536,1.336,1.336,0,0,0,.7.983,1.367,1.367,0,0,0,1.216.033L165,33.76A2.85,2.85,0,0,1,163.532,34.943Z" transform="translate(-119.213 0)" fill="#193b5e"/>
    </g>
  </g>
  <g id="Group_902" data-name="Group 902" transform="translate(0 26.54)">
    <g id="Group_901" data-name="Group 901">
      <path id="Path_6285" data-name="Path 6285" d="M35.851,200.068a1,1,0,0,0-1.32-.5,13.364,13.364,0,0,0-7.777,10.659l-.6.588-13.708,11.5a1,1,0,0,0,1.283,1.529l12.941-10.857v.978a1,1,0,1,0,2,0v-2.234a11.361,11.361,0,0,1,6.687-10.342A1,1,0,0,0,35.851,200.068Z" transform="translate(-12.087 -199.479)" fill="#193b5e"/>
    </g>
  </g>
</svg>
