<svg id="recommended" xmlns="http://www.w3.org/2000/svg" width="67.061" height="67.061" viewBox="0 0 67.061 67.061">
  <g id="Group_848" data-name="Group 848" transform="translate(16.8 15.106)">
    <g id="Group_847" data-name="Group 847">
      <path id="Path_6258" data-name="Path 6258" d="M162.853,129.837a3.854,3.854,0,0,0-3.85-3.85h-7.076a11.623,11.623,0,0,0,3.06-6.107,4.246,4.246,0,0,0-1.022-3.283,3.691,3.691,0,0,0-2.753-1.264h-.037a3.838,3.838,0,0,0-3.848,3.818,4.9,4.9,0,0,1-1.4,1.914,10.936,10.936,0,0,1-4.168,2.438,5.107,5.107,0,0,0-2.145,1.4,13.881,13.881,0,0,1-1.447,1.333,2.155,2.155,0,0,0-1.012-.252h-6.72a2.172,2.172,0,0,0-2.17,2.17v17.92a2.172,2.172,0,0,0,2.17,2.17h6.72a2.171,2.171,0,0,0,1.9-1.12H156.2a3.289,3.289,0,0,0,2.833-4.962,3.288,3.288,0,0,0,1.12-4.48,3.287,3.287,0,0,0,1-4.661A3.85,3.85,0,0,0,162.853,129.837Zm-3.85,1.75h-.56a1.05,1.05,0,1,0,0,2.1,1.19,1.19,0,0,1,0,2.38h-1.12a1.05,1.05,0,0,0,0,2.1,1.19,1.19,0,1,1,0,2.38H156.2a1.05,1.05,0,1,0,0,2.1,1.19,1.19,0,0,1,0,2.38H139.327v-10.15a1.05,1.05,0,1,0-2.1,0v11.2a.07.07,0,0,1-.07.07h-6.72a.07.07,0,0,1-.07-.07V128.157a.07.07,0,0,1,.07-.07h6.72a.07.07,0,0,1,.07.07v2.24a1.05,1.05,0,0,0,2.1,0v-2.24c0-.051,0-.1-.008-.151a15.945,15.945,0,0,0,1.828-1.663,3.035,3.035,0,0,1,1.263-.844,12.972,12.972,0,0,0,5.095-3.037,5.476,5.476,0,0,0,1.921-3.294,1.718,1.718,0,0,1,.512-1.229,1.761,1.761,0,0,1,1.254-.506,1.6,1.6,0,0,1,1.2.558,2.173,2.173,0,0,1,.505,1.66c-.229,2.086-1.9,4.665-4.251,6.57a1.05,1.05,0,0,0,.661,1.866H159a1.75,1.75,0,0,1,0,3.5Z" transform="translate(-128.267 -115.333)" fill="#193b5e"/>
    </g>
  </g>
  <g id="Group_850" data-name="Group 850" transform="translate(21.275 41.429)">
    <g id="Group_849" data-name="Group 849">
      <path id="Path_6259" data-name="Path 6259" d="M163.486,316.306a1.056,1.056,0,1,0,1.056,1.056A1.06,1.06,0,0,0,163.486,316.306Z" transform="translate(-162.43 -316.306)" fill="#193b5e"/>
    </g>
  </g>
  <g id="Group_852" data-name="Group 852" transform="translate(0 0)">
    <g id="Group_851" data-name="Group 851" transform="translate(0)">
      <path id="Path_6260" data-name="Path 6260" d="M65.189,33.531l1.8-4.773a1.05,1.05,0,0,0-.163-1.028l-3.19-3.982.24-5.1a1.05,1.05,0,0,0-.472-.927l-4.265-2.8L57.8,10a1.05,1.05,0,0,0-.736-.736L52.139,7.918l-2.8-4.265a1.051,1.051,0,0,0-.927-.472l-5.1.24L39.331.231A1.05,1.05,0,0,0,38.3.068l-4.773,1.8L28.757.068a1.049,1.049,0,0,0-1.028.163l-3.982,3.19-5.1-.24a1.048,1.048,0,0,0-.927.472l-2.8,4.265L10,9.265A1.05,1.05,0,0,0,9.264,10L7.918,14.922l-4.265,2.8a1.05,1.05,0,0,0-.472.927l.24,5.1L.231,27.73a1.05,1.05,0,0,0-.163,1.028l1.8,4.773L.068,38.3A1.05,1.05,0,0,0,.23,39.332l3.19,3.982-.24,5.1a1.05,1.05,0,0,0,.472.927l4.265,2.8,1.346,4.922A1.05,1.05,0,0,0,10,57.8l4.922,1.346,2.8,4.265a1.053,1.053,0,0,0,.927.472l5.1-.24,3.982,3.19a1.05,1.05,0,0,0,1.028.163l4.773-1.8,4.773,1.8a1.05,1.05,0,0,0,1.028-.163l3.982-3.19,5.1.24a1.051,1.051,0,0,0,.927-.472l2.8-4.265L57.061,57.8a1.05,1.05,0,0,0,.736-.736l1.346-4.922,4.265-2.8a1.05,1.05,0,0,0,.472-.927l-.24-5.1,3.19-3.982a1.05,1.05,0,0,0,.163-1.028Zm-2.1.371,1.732,4.584L61.752,42.31a1.05,1.05,0,0,0-.229.706l.231,4.9-4.1,2.69a1.05,1.05,0,0,0-.436.6l-1.293,4.727L51.2,57.222a1.051,1.051,0,0,0-.6.436l-2.69,4.1-4.9-.231a1.051,1.051,0,0,0-.706.229l-3.824,3.064L33.9,63.085a1.051,1.051,0,0,0-.742,0l-4.584,1.732L24.75,61.753a1.052,1.052,0,0,0-.706-.229l-4.9.231-2.69-4.1a1.05,1.05,0,0,0-.6-.436l-4.727-1.293L9.839,51.2a1.051,1.051,0,0,0-.436-.6l-4.1-2.69.231-4.9a1.049,1.049,0,0,0-.229-.706L2.244,38.486,3.976,33.9a1.05,1.05,0,0,0,0-.742L2.244,28.575l3.064-3.824a1.05,1.05,0,0,0,.229-.706l-.231-4.9,4.1-2.69a1.05,1.05,0,0,0,.436-.6l1.293-4.727,4.727-1.293a1.051,1.051,0,0,0,.6-.436l2.69-4.1,4.9.231a1.051,1.051,0,0,0,.706-.229l3.824-3.064,4.584,1.732a1.05,1.05,0,0,0,.742,0l4.584-1.732L42.31,5.308a1.049,1.049,0,0,0,.706.229l4.9-.231L50.6,9.4a1.05,1.05,0,0,0,.6.436l4.727,1.293,1.293,4.727a1.051,1.051,0,0,0,.436.6l4.1,2.69-.231,4.9a1.049,1.049,0,0,0,.229.706l3.064,3.824-1.732,4.584A1.051,1.051,0,0,0,63.084,33.9Z" transform="translate(0 0)" fill="#193b5e"/>
    </g>
  </g>
  <g id="Group_854" data-name="Group 854" transform="translate(49.853 13.476)">
    <g id="Group_853" data-name="Group 853">
      <path id="Path_6261" data-name="Path 6261" d="M384.03,104.813c-.261-.284-.532-.567-.806-.841s-.556-.545-.841-.806a1.05,1.05,0,0,0-1.42,1.547c.262.241.524.491.776.744s.5.514.744.776a1.05,1.05,0,0,0,1.547-1.42Z" transform="translate(-380.623 -102.89)" fill="#193b5e"/>
    </g>
  </g>
  <g id="Group_856" data-name="Group 856" transform="translate(6.686 6.708)">
    <g id="Group_855" data-name="Group 855">
      <path id="Path_6262" data-name="Path 6262" d="M92.246,55.392A26.814,26.814,0,0,0,57.323,95.26a1.05,1.05,0,0,0,1.607-1.352A24.715,24.715,0,0,1,91.117,57.163a1.05,1.05,0,0,0,1.129-1.771Z" transform="translate(-51.047 -51.212)" fill="#193b5e"/>
    </g>
  </g>
  <g id="Group_858" data-name="Group 858" transform="translate(15.883 18.642)">
    <g id="Group_857" data-name="Group 857">
      <path id="Path_6263" data-name="Path 6263" d="M161.508,142.818a1.05,1.05,0,1,0-1.771,1.128,24.714,24.714,0,0,1-36.745,32.187,1.05,1.05,0,1,0-1.352,1.607,26.707,26.707,0,0,0,17.232,6.276q.548,0,1.1-.022a26.816,26.816,0,0,0,21.537-41.176Z" transform="translate(-121.266 -142.332)" fill="#193b5e"/>
    </g>
  </g>
</svg>
