<svg id="team" xmlns="http://www.w3.org/2000/svg" width="63.48" height="63.48" viewBox="0 0 63.48 63.48">
  <g id="Group_874" data-name="Group 874" transform="translate(0 8.69)">
    <g id="Group_873" data-name="Group 873" transform="translate(0)">
      <path id="Path_6271" data-name="Path 6271" d="M16.751,85.091,2.117,70.456A1.24,1.24,0,0,0,.363,72.21l14.27,14.27,0,1.709a1.24,1.24,0,0,0,1.238,1.242h0a1.24,1.24,0,0,0,1.24-1.238l0-2.223A1.24,1.24,0,0,0,16.751,85.091Z" transform="translate(0 -70.093)" fill="#193b5e"/>
    </g>
  </g>
  <g id="Group_876" data-name="Group 876" transform="translate(8.69 0)">
    <g id="Group_875" data-name="Group 875">
      <path id="Path_6272" data-name="Path 6272" d="M89.407,14.63h0l-2.925,0L72.21.364a1.24,1.24,0,0,0-1.754,1.754L85.091,16.752a1.24,1.24,0,0,0,.877.363h0l3.44,0a1.24,1.24,0,0,0,0-2.48Z" transform="translate(-70.093 -0.001)" fill="#193b5e"/>
    </g>
  </g>
  <g id="Group_878" data-name="Group 878" transform="translate(52.31)">
    <g id="Group_877" data-name="Group 877">
      <path id="Path_6273" data-name="Path 6273" d="M424.027.363a1.24,1.24,0,0,0-2.116.877,1.24,1.24,0,1,0,2.116-.877Z" transform="translate(-421.911 0)" fill="#193b5e"/>
    </g>
  </g>
  <g id="Group_880" data-name="Group 880" transform="translate(26.515 3.631)">
    <g id="Group_879" data-name="Group 879">
      <path id="Path_6274" data-name="Path 6274" d="M238.142,29.651a1.24,1.24,0,0,0-1.753,0L225.749,40.29l-1.709,0h-.018a12.2,12.2,0,0,0-8.683,3.6L214.225,45a1.24,1.24,0,1,0,1.753,1.754l1.114-1.114a9.735,9.735,0,0,1,6.93-2.87h.014l2.223,0h0a1.24,1.24,0,0,0,.877-.363l11-11A1.24,1.24,0,0,0,238.142,29.651Z" transform="translate(-213.862 -29.288)" fill="#193b5e"/>
    </g>
  </g>
  <g id="Group_882" data-name="Group 882" transform="translate(46.366 8.69)">
    <g id="Group_881" data-name="Group 881">
      <path id="Path_6275" data-name="Path 6275" d="M390.719,70.455a1.24,1.24,0,0,0-1.753,0L374.331,85.089a1.24,1.24,0,0,0-.363.879l0,3.44a1.24,1.24,0,0,0,1.24,1.238h0a1.24,1.24,0,0,0,1.238-1.242l0-2.925,14.27-14.27A1.24,1.24,0,0,0,390.719,70.455Z" transform="translate(-373.968 -70.092)" fill="#193b5e"/>
    </g>
  </g>
  <g id="Group_884" data-name="Group 884" transform="translate(45.526 31.206)">
    <g id="Group_883" data-name="Group 883">
      <path id="Path_6276" data-name="Path 6276" d="M384.787,273.164l-14.27-14.27,0-1.709a12.215,12.215,0,0,0-.937-4.722,1.24,1.24,0,0,0-2.29.95,9.751,9.751,0,0,1,.748,3.769l0,2.223a1.24,1.24,0,0,0,.363.879l14.634,14.634a1.24,1.24,0,0,0,1.753-1.754Z" transform="translate(-367.196 -251.698)" fill="#193b5e"/>
    </g>
  </g>
  <g id="Group_886" data-name="Group 886" transform="translate(34.236 46.366)">
    <g id="Group_885" data-name="Group 885">
      <path id="Path_6277" data-name="Path 6277" d="M296.322,388.965l-14.634-14.634a1.24,1.24,0,0,0-.877-.363h0l-3.44,0a1.24,1.24,0,0,0,0,2.48h0l2.925,0,14.27,14.27a1.24,1.24,0,0,0,1.753-1.754Z" transform="translate(-276.131 -373.968)" fill="#193b5e"/>
    </g>
  </g>
  <g id="Group_888" data-name="Group 888" transform="translate(8.69 61)">
    <g id="Group_887" data-name="Group 887">
      <path id="Path_6278" data-name="Path 6278" d="M72.207,492.363a1.239,1.239,0,1,0,.363.877A1.249,1.249,0,0,0,72.207,492.363Z" transform="translate(-70.091 -492)" fill="#193b5e"/>
    </g>
  </g>
  <g id="Group_890" data-name="Group 890" transform="translate(0 19.23)">
    <g id="Group_889" data-name="Group 889">
      <path id="Path_6279" data-name="Path 6279" d="M44.342,167.328a3.476,3.476,0,0,0-.938-.668,3.494,3.494,0,0,0-1.578-4.876,3.492,3.492,0,0,0-4.661-4.663,3.5,3.5,0,0,0-5.64-1l-4.95,4.95a3.541,3.541,0,0,0-6.467-1.646l-3.4,5.065a12.238,12.238,0,0,0-2.081,6.857l0,2.925L.364,188.543A1.24,1.24,0,1,0,2.118,190.3l14.634-14.634a1.24,1.24,0,0,0,.363-.879l0-3.44a9.767,9.767,0,0,1,1.661-5.472l3.4-5.065a1.063,1.063,0,0,1,1.493-.279,1.066,1.066,0,0,1,.3,1.422l-1.327,2.189a1.572,1.572,0,0,0,2.456,1.926l8.191-8.191a1.013,1.013,0,0,1,1.513,1.341l-4.847,4.858a1.24,1.24,0,0,0,1.754,1.754l6.266-6.277a1.013,1.013,0,1,1,1.433,1.433l-6.271,6.272a1.24,1.24,0,0,0,1.753,1.754l4.853-4.853a1.013,1.013,0,0,1,1.341,1.513l-4.767,4.767a1.24,1.24,0,1,0,1.753,1.754L41.247,169a1.013,1.013,0,0,1,1.342,1.513l-8.854,8.854a9.735,9.735,0,0,1-6.93,2.87h-.014l-2.223,0h0a1.24,1.24,0,0,0-.877.363l-11.52,11.52a1.24,1.24,0,0,0,1.753,1.754l11.156-11.156,1.709,0h.018a12.2,12.2,0,0,0,8.683-3.6l8.853-8.854A3.5,3.5,0,0,0,44.342,167.328Z" transform="translate(-0.001 -155.1)" fill="#193b5e"/>
    </g>
  </g>
</svg>
