<svg xmlns="http://www.w3.org/2000/svg" width="29.075" height="29.075" viewBox="0 0 29.075 29.075">
  <g id="email" transform="translate(0)">
    <g id="Group_3" data-name="Group 3" transform="translate(0)">
      <path id="Path_19" data-name="Path 19" d="M14.538,0A14.537,14.537,0,1,0,29.076,14.537,14.537,14.537,0,0,0,14.538,0Zm0,5.106,8.6,5.364H5.936Zm8.71,13.931h0a1.558,1.558,0,0,1-1.558,1.558H7.387a1.558,1.558,0,0,1-1.558-1.558V10.812a1.549,1.549,0,0,1,.024-.266l8.219,5.125c.01.006.021.011.031.016l.033.017a.863.863,0,0,0,.179.07l.019,0a.887.887,0,0,0,.2.026h0a.871.871,0,0,0,.2-.026l.019,0a.871.871,0,0,0,.179-.07l.033-.017c.01-.006.021-.01.031-.016l8.219-5.125a1.548,1.548,0,0,1,.024.266v8.225Z" transform="translate(-0.001)" fill="#001434"/>
    </g>
  </g>
</svg>
