<svg xmlns="http://www.w3.org/2000/svg" width="28.765" height="28.765" viewBox="0 0 28.765 28.765">
  <g id="Group_1000" data-name="Group 1000" transform="translate(-489 -865)">
    <g id="Group_20" data-name="Group 20" transform="translate(489 865)">
      <circle id="Ellipse_4" data-name="Ellipse 4" cx="14.383" cy="14.383" r="14.383" fill="#01e675"/>
    </g>
    <path id="Union_1" data-name="Union 1" d="M2.323,14.314a8.468,8.468,0,1,1,1.66,1.36l-2.451,1.39Z" transform="translate(494.9 870.901)" fill="#01e675" stroke="#fffcfc" stroke-width="1"/>
    <g id="call-answer" transform="translate(498.798 874.849)">
      <g id="Group_997" data-name="Group 997" transform="translate(0 0)">
        <g id="Group_996" data-name="Group 996">
          <path id="Path_6334" data-name="Path 6334" d="M8.768,7.472,7.383,6.087a.722.722,0,0,0-1.018.019l-.7.7-.138-.077A6.945,6.945,0,0,1,3.851,5.513,6.984,6.984,0,0,1,2.634,3.831c-.026-.047-.051-.092-.075-.135l.468-.468L3.258,3A.722.722,0,0,0,3.276,1.98L1.891.595A.722.722,0,0,0,.873.614l-.39.393.011.011a2.258,2.258,0,0,0-.322.567,2.353,2.353,0,0,0-.143.576c-.183,1.516.51,2.9,2.391,4.783,2.6,2.6,4.694,2.4,4.785,2.393a2.341,2.341,0,0,0,.577-.145,2.25,2.25,0,0,0,.565-.32l.009.008.4-.387A.723.723,0,0,0,8.768,7.472Z" transform="translate(0 -0.394)" fill="#f7f7f7"/>
        </g>
      </g>
    </g>
  </g>
</svg>
