<svg xmlns="http://www.w3.org/2000/svg" width="28.563" height="28.563" viewBox="0 0 28.563 28.563">
  <g id="phone-symbol-of-an-auricular-inside-a-circle" transform="translate(0)">
    <path id="Path_18" data-name="Path 18" d="M14.282,0A14.281,14.281,0,1,0,28.563,14.281,14.282,14.282,0,0,0,14.282,0Zm7.541,20.838L20.68,21.982a2.108,2.108,0,0,1-.821.331A13.487,13.487,0,0,1,6.249,8.671a2.129,2.129,0,0,1,.335-.784L7.727,6.743a1.91,1.91,0,0,1,1.785-.422l.241.08a2.259,2.259,0,0,1,1.306,1.381l.575,2.111a2.071,2.071,0,0,1-.472,1.808l-.763.764a8.11,8.11,0,0,0,5.7,5.7l.763-.764a2.07,2.07,0,0,1,1.808-.475l2.111.577a2.262,2.262,0,0,1,1.381,1.3l.08.244A1.912,1.912,0,0,1,21.824,20.838Z" transform="translate(-0.001 0)" fill="#001434"/>
  </g>
</svg>
